<mxfile host="app.diagrams.net" agent="Mozilla/5.0 (X11; Ubuntu; Linux x86_64; rv:133.0) Gecko/20100101 Firefox/133.0" version="25.0.1">
  <diagram name="Page-1" id="2YBvvXClWsGukQMizWep">
    <mxGraphModel dx="880" dy="519" grid="1" gridSize="10" guides="1" tooltips="1" connect="1" arrows="1" fold="1" page="1" pageScale="1" pageWidth="850" pageHeight="1100" math="0" shadow="0">
      <root>
        <mxCell id="0" />
        <mxCell id="1" parent="0" />
        <mxCell id="1mL5aSI_76YMsRaEhNx0-1" value="" style="endArrow=classic;html=1;rounded=0;" edge="1" parent="1">
          <mxGeometry width="50" height="50" relative="1" as="geometry">
            <mxPoint x="330" y="120" as="sourcePoint" />
            <mxPoint x="570" y="160" as="targetPoint" />
          </mxGeometry>
        </mxCell>
        <mxCell id="1mL5aSI_76YMsRaEhNx0-7" value="Seq. nr: 1, Msg. type: EOC" style="edgeLabel;html=1;align=center;verticalAlign=middle;resizable=0;points=[];rotation=9.6;" vertex="1" connectable="0" parent="1mL5aSI_76YMsRaEhNx0-1">
          <mxGeometry x="-0.1231" y="-1" relative="1" as="geometry">
            <mxPoint x="15" y="-10" as="offset" />
          </mxGeometry>
        </mxCell>
        <mxCell id="1mL5aSI_76YMsRaEhNx0-3" value="Agent #1" style="rounded=0;whiteSpace=wrap;html=1;" vertex="1" parent="1">
          <mxGeometry x="40" y="40" width="100" height="40" as="geometry" />
        </mxCell>
        <mxCell id="1mL5aSI_76YMsRaEhNx0-4" value="Server" style="rounded=0;whiteSpace=wrap;html=1;" vertex="1" parent="1">
          <mxGeometry x="280" y="40" width="100" height="40" as="geometry" />
        </mxCell>
        <mxCell id="1mL5aSI_76YMsRaEhNx0-5" value="" style="endArrow=none;html=1;rounded=0;exitX=0.5;exitY=1;exitDx=0;exitDy=0;" edge="1" parent="1" source="1mL5aSI_76YMsRaEhNx0-23">
          <mxGeometry width="50" height="50" relative="1" as="geometry">
            <mxPoint x="260" y="240" as="sourcePoint" />
            <mxPoint x="90" y="360" as="targetPoint" />
          </mxGeometry>
        </mxCell>
        <mxCell id="1mL5aSI_76YMsRaEhNx0-6" value="" style="endArrow=none;html=1;rounded=0;exitX=0.5;exitY=1;exitDx=0;exitDy=0;" edge="1" parent="1" source="1mL5aSI_76YMsRaEhNx0-4">
          <mxGeometry width="50" height="50" relative="1" as="geometry">
            <mxPoint x="260" y="240" as="sourcePoint" />
            <mxPoint x="330" y="360" as="targetPoint" />
          </mxGeometry>
        </mxCell>
        <mxCell id="1mL5aSI_76YMsRaEhNx0-9" value="" style="endArrow=classic;html=1;rounded=0;" edge="1" parent="1">
          <mxGeometry width="50" height="50" relative="1" as="geometry">
            <mxPoint x="570" y="170" as="sourcePoint" />
            <mxPoint x="330" y="210" as="targetPoint" />
          </mxGeometry>
        </mxCell>
        <mxCell id="1mL5aSI_76YMsRaEhNx0-10" value="ACK, Seq. nr: 1" style="edgeLabel;html=1;align=center;verticalAlign=middle;resizable=0;points=[];rotation=351;" vertex="1" connectable="0" parent="1">
          <mxGeometry x="449.999750862734" y="179.9970855655053" as="geometry" />
        </mxCell>
        <mxCell id="1mL5aSI_76YMsRaEhNx0-12" value="Agent #2" style="rounded=0;whiteSpace=wrap;html=1;" vertex="1" parent="1">
          <mxGeometry x="520" y="40" width="100" height="40" as="geometry" />
        </mxCell>
        <mxCell id="1mL5aSI_76YMsRaEhNx0-13" value="" style="endArrow=none;html=1;rounded=0;exitX=0.5;exitY=1;exitDx=0;exitDy=0;" edge="1" parent="1" source="1mL5aSI_76YMsRaEhNx0-12">
          <mxGeometry width="50" height="50" relative="1" as="geometry">
            <mxPoint x="740" y="240" as="sourcePoint" />
            <mxPoint x="570" y="360" as="targetPoint" />
          </mxGeometry>
        </mxCell>
        <mxCell id="1mL5aSI_76YMsRaEhNx0-14" value="" style="endArrow=classic;html=1;rounded=0;" edge="1" parent="1">
          <mxGeometry width="50" height="50" relative="1" as="geometry">
            <mxPoint x="330" y="120" as="sourcePoint" />
            <mxPoint x="90" y="200" as="targetPoint" />
          </mxGeometry>
        </mxCell>
        <mxCell id="1mL5aSI_76YMsRaEhNx0-15" value="Seq. nr: 1, Msg. type: EOC" style="edgeLabel;html=1;align=center;verticalAlign=middle;resizable=0;points=[];rotation=341.2;" vertex="1" connectable="0" parent="1mL5aSI_76YMsRaEhNx0-14">
          <mxGeometry x="-0.1231" y="-1" relative="1" as="geometry">
            <mxPoint x="-11" y="-7" as="offset" />
          </mxGeometry>
        </mxCell>
        <mxCell id="1mL5aSI_76YMsRaEhNx0-16" value="" style="endArrow=classic;html=1;rounded=0;" edge="1" parent="1">
          <mxGeometry width="50" height="50" relative="1" as="geometry">
            <mxPoint x="330" y="260" as="sourcePoint" />
            <mxPoint x="100" y="330" as="targetPoint" />
          </mxGeometry>
        </mxCell>
        <mxCell id="1mL5aSI_76YMsRaEhNx0-17" value="Seq. nr: 1, Msg. type: EOC, Ret: 1" style="edgeLabel;html=1;align=center;verticalAlign=middle;resizable=0;points=[];rotation=343.5;" vertex="1" connectable="0" parent="1mL5aSI_76YMsRaEhNx0-16">
          <mxGeometry x="-0.1231" y="-1" relative="1" as="geometry">
            <mxPoint x="-11" y="-7" as="offset" />
          </mxGeometry>
        </mxCell>
        <mxCell id="1mL5aSI_76YMsRaEhNx0-18" value="" style="endArrow=classic;html=1;rounded=0;" edge="1" parent="1">
          <mxGeometry width="50" height="50" relative="1" as="geometry">
            <mxPoint x="90" y="210" as="sourcePoint" />
            <mxPoint x="240" y="230" as="targetPoint" />
          </mxGeometry>
        </mxCell>
        <mxCell id="1mL5aSI_76YMsRaEhNx0-19" value="ACK, Seq. nr: 1" style="edgeLabel;html=1;align=center;verticalAlign=middle;resizable=0;points=[];rotation=7;" vertex="1" connectable="0" parent="1">
          <mxGeometry x="169.999750862734" y="209.9970855655053" as="geometry" />
        </mxCell>
        <mxCell id="1mL5aSI_76YMsRaEhNx0-20" value="" style="shape=mxgraph.sysml.x;" vertex="1" parent="1">
          <mxGeometry x="241" y="225" width="10" height="10" as="geometry" />
        </mxCell>
        <mxCell id="1mL5aSI_76YMsRaEhNx0-24" value="" style="endArrow=none;html=1;rounded=0;exitX=0.5;exitY=1;exitDx=0;exitDy=0;" edge="1" parent="1" source="1mL5aSI_76YMsRaEhNx0-3" target="1mL5aSI_76YMsRaEhNx0-23">
          <mxGeometry width="50" height="50" relative="1" as="geometry">
            <mxPoint x="90" y="80" as="sourcePoint" />
            <mxPoint x="90" y="380" as="targetPoint" />
          </mxGeometry>
        </mxCell>
        <mxCell id="1mL5aSI_76YMsRaEhNx0-23" value="" style="shape=mxgraph.sysml.x;" vertex="1" parent="1">
          <mxGeometry x="85" y="325" width="10" height="10" as="geometry" />
        </mxCell>
        <mxCell id="1mL5aSI_76YMsRaEhNx0-25" value="Agent #1 shutdown" style="text;html=1;align=center;verticalAlign=middle;whiteSpace=wrap;rounded=0;" vertex="1" parent="1">
          <mxGeometry x="25" y="195" width="60" height="30" as="geometry" />
        </mxCell>
        <mxCell id="1mL5aSI_76YMsRaEhNx0-26" value="Agent #2 shutdown" style="text;html=1;align=center;verticalAlign=middle;whiteSpace=wrap;rounded=0;" vertex="1" parent="1">
          <mxGeometry x="580" y="150" width="60" height="30" as="geometry" />
        </mxCell>
        <mxCell id="1mL5aSI_76YMsRaEhNx0-27" value="Server shutdown after timeout" style="text;html=1;align=center;verticalAlign=middle;whiteSpace=wrap;rounded=0;" vertex="1" parent="1">
          <mxGeometry x="330" y="325" width="100" height="30" as="geometry" />
        </mxCell>
      </root>
    </mxGraphModel>
  </diagram>
</mxfile>
